<svg xmlns="http://www.w3.org/2000/svg" width="115.885" height="101.554" viewBox="0 0 115.885 101.554">
  <path id="Message-Icon-SVG-03mvcd3" d="M19.313,100.243a2.16,2.16,0,0,1-1-1.62l-1.371-20C5.981,69.9,0,58.314,0,45.978,0,20.622,25.73,0,57.442,0s57.443,20.622,57.443,45.978S89.153,91.895,57.442,91.895a71.023,71.023,0,0,1-14.578-1.433l-21.619,9.843a2.022,2.022,0,0,1-.872.249A2.1,2.1,0,0,1,19.313,100.243ZM4.112,45.978c0,11.339,5.669,21.992,16.074,29.967A1.753,1.753,0,0,1,21,77.44l1.247,17.942,19.5-8.909a2.325,2.325,0,0,1,1.309-.186,69.293,69.293,0,0,0,14.391,1.557c29.407,0,53.393-18.815,53.393-41.866,0-23.114-23.986-41.929-53.393-41.929S4.112,22.865,4.112,45.978Zm71.834,1.371a8.162,8.162,0,1,1,8.161,8.223A8.163,8.163,0,0,1,75.946,47.349Zm-26.664,0a8.193,8.193,0,1,1,8.161,8.223A8.2,8.2,0,0,1,49.281,47.349Zm-26.6,0a8.193,8.193,0,1,1,16.385,0,8.193,8.193,0,1,1-16.385,0Z" transform="translate(0.5 0.5)" stroke="rgba(0,0,0,0)" stroke-miterlimit="10" stroke-width="1"/>
</svg>
