<svg xmlns="http://www.w3.org/2000/svg" width="170.588" height="176.754" viewBox="0 0 170.588 176.754">
  <path id="Message-Icon-SVG-orik3d" d="M140.892,22.649C122.357,6.627,98.638-.442,73.819,2.543,35.806,7.569,4.862,38.828.62,77.156a84.279,84.279,0,0,0,14.451,58.433A10.4,10.4,0,0,1,16.8,142.5l-2.985,30.316a5.649,5.649,0,0,0,1.885,4.712,5.923,5.923,0,0,0,3.3,1.1l1.414-.314L52.3,168.261a9.6,9.6,0,0,1,6.283-.157,84.45,84.45,0,0,0,35.343,3.927c43.668-4.555,77.283-42.411,76.655-86.236a85.622,85.622,0,0,0-29.688-63.146M92.826,161.664a73.81,73.81,0,0,1-30.945-3.3,21.2,21.2,0,0,0-12.88,0l-24.19,7.7,2.2-22.462a19.878,19.878,0,0,0-3.3-13.823,74.593,74.593,0,0,1-12.88-51.365c3.77-33.772,30.945-61.261,64.4-65.5A74.12,74.12,0,0,1,134.295,30.5a75.5,75.5,0,0,1,25.918,55.449c.628,38.641-28.9,71.942-67.387,75.712" transform="translate(0 -1.875)"/>
</svg>
