<svg xmlns="http://www.w3.org/2000/svg" width="39.571" height="39.057" viewBox="0 0 39.571 39.057">
  <path id="Image-Icons-SVG-09ujdf" d="M4.689,38.056A4.689,4.689,0,0,1,0,33.368V4.689A4.689,4.689,0,0,1,4.689,0H33.882a4.689,4.689,0,0,1,4.689,4.689V33.368a4.689,4.689,0,0,1-4.689,4.688ZM21.945,18.14l12,6.64V4.689a.06.06,0,0,0-.06-.06H4.689a.06.06,0,0,0-.06.06V22.206l11.813-4.463a6.571,6.571,0,0,1,5.5.4ZM8.457,11.628A3.171,3.171,0,1,1,11.628,14.8,3.17,3.17,0,0,1,8.457,11.628Z" transform="translate(0.5 0.5)" stroke="rgba(0,0,0,0)" stroke-miterlimit="10" stroke-width="1"/>
</svg>
