<svg xmlns="http://www.w3.org/2000/svg" width="369.95" height="321.66" viewBox="0 0 369.95 321.66">
  <path id="Forward-Icon-SVG-09ikdlg3s" d="M417.059,150.647,259.159,35.129a4.625,4.625,0,0,0-7.371,3.749V95.43a355.72,355.72,0,0,0-46.036,13.026c-34.789,12.454-68.625,30.754-96.138,56.457A179.885,179.885,0,0,0,55.1,257.81c-5.21,16.553-5.115,33.677-6.068,49.975-.222,16.362,2.859,32.533,4.194,48.1,4.353-15.536,6.958-30.881,12.581-45.115,6.323-14.074,11.374-28.022,20.588-39.491,15.981-23.955,37.458-41.175,61.889-50.2,24.114-9.5,50.2-12.867,76.6-12.136a220.446,220.446,0,0,1,26.91,2.192v58.808a4.643,4.643,0,0,0,7.371,3.749l157.9-115.582a4.608,4.608,0,0,0,0-7.466" transform="translate(-49.016 -34.227)"/>
</svg>
