<svg xmlns="http://www.w3.org/2000/svg" width="250.895" height="161.332" viewBox="0 0 250.895 161.332">
  <path id="Video-Camera-Icon-SVG-oijhnjdg" d="M288.645,167.784l-43.367-23.066a7.753,7.753,0,0,1-4.1-6.831V74.536a7.8,7.8,0,0,1,4.1-6.862L288.645,44.64a8.428,8.428,0,0,1,12.391,7.434V160.349a8.428,8.428,0,0,1-12.391,7.434M226.279,46.419V166a20.867,20.867,0,0,1-20.873,20.873H71.015A20.867,20.867,0,0,1,50.142,166V46.419A20.867,20.867,0,0,1,71.015,25.546h134.39a20.867,20.867,0,0,1,20.873,20.873M100.372,60.812A13.868,13.868,0,1,0,86.52,74.664a13.844,13.844,0,0,0,13.852-13.852" transform="translate(-50.142 -25.546)" opacity="0.98"/>
</svg>
